<mxfile host="app.diagrams.net" modified="2024-02-29T09:05:31.076Z" agent="Mozilla/5.0 (Windows NT 10.0; Win64; x64) AppleWebKit/537.36 (KHTML, like Gecko) Chrome/122.0.0.0 Safari/537.36 Edg/122.0.0.0" etag="grCEjHnxR6eC7VVqPi96" version="23.1.8" type="device">
  <diagram name="Seite-1" id="E-Y0wc6GR2pNmB1uPgyP">
    <mxGraphModel dx="1386" dy="759" grid="1" gridSize="10" guides="1" tooltips="1" connect="1" arrows="1" fold="1" page="1" pageScale="1" pageWidth="827" pageHeight="1169" math="0" shadow="0">
      <root>
        <mxCell id="0" />
        <mxCell id="1" parent="0" />
        <mxCell id="anx8fXZ-Dg-yJ3C-ajO4-1" value="Offline Calculator" style="text;html=1;align=center;verticalAlign=middle;whiteSpace=wrap;rounded=0;" parent="1" vertex="1">
          <mxGeometry x="330" y="40" width="60" height="30" as="geometry" />
        </mxCell>
        <mxCell id="anx8fXZ-Dg-yJ3C-ajO4-16" style="edgeStyle=orthogonalEdgeStyle;rounded=0;orthogonalLoop=1;jettySize=auto;html=1;" parent="1" source="anx8fXZ-Dg-yJ3C-ajO4-2" target="anx8fXZ-Dg-yJ3C-ajO4-12" edge="1">
          <mxGeometry relative="1" as="geometry">
            <Array as="points">
              <mxPoint x="520" y="310" />
            </Array>
          </mxGeometry>
        </mxCell>
        <mxCell id="anx8fXZ-Dg-yJ3C-ajO4-17" value="getAllValues()" style="edgeLabel;html=1;align=center;verticalAlign=middle;resizable=0;points=[];" parent="anx8fXZ-Dg-yJ3C-ajO4-16" vertex="1" connectable="0">
          <mxGeometry x="0.1875" y="1" relative="1" as="geometry">
            <mxPoint y="-10" as="offset" />
          </mxGeometry>
        </mxCell>
        <mxCell id="cWrUNTGdfXdJ4vohaMzQ-17" style="edgeStyle=orthogonalEdgeStyle;rounded=0;orthogonalLoop=1;jettySize=auto;html=1;strokeWidth=2;" edge="1" parent="1" source="anx8fXZ-Dg-yJ3C-ajO4-2" target="cWrUNTGdfXdJ4vohaMzQ-13">
          <mxGeometry relative="1" as="geometry">
            <Array as="points">
              <mxPoint x="520" y="267" />
              <mxPoint x="520" y="210" />
            </Array>
          </mxGeometry>
        </mxCell>
        <mxCell id="cWrUNTGdfXdJ4vohaMzQ-22" value="Open()" style="edgeLabel;html=1;align=center;verticalAlign=middle;resizable=0;points=[];fontSize=15;" vertex="1" connectable="0" parent="cWrUNTGdfXdJ4vohaMzQ-17">
          <mxGeometry x="-0.1224" relative="1" as="geometry">
            <mxPoint as="offset" />
          </mxGeometry>
        </mxCell>
        <mxCell id="anx8fXZ-Dg-yJ3C-ajO4-2" value="OfflineCalculator" style="swimlane;fontStyle=1;align=center;verticalAlign=top;childLayout=stackLayout;horizontal=1;startSize=26;horizontalStack=0;resizeParent=1;resizeParentMax=0;resizeLast=0;collapsible=1;marginBottom=0;whiteSpace=wrap;html=1;" parent="1" vertex="1">
          <mxGeometry x="270" y="198" width="160" height="138" as="geometry" />
        </mxCell>
        <mxCell id="anx8fXZ-Dg-yJ3C-ajO4-3" value="- prozentsatz" style="text;strokeColor=none;fillColor=none;align=left;verticalAlign=top;spacingLeft=4;spacingRight=4;overflow=hidden;rotatable=0;points=[[0,0.5],[1,0.5]];portConstraint=eastwest;whiteSpace=wrap;html=1;" parent="anx8fXZ-Dg-yJ3C-ajO4-2" vertex="1">
          <mxGeometry y="26" width="160" height="26" as="geometry" />
        </mxCell>
        <mxCell id="cWrUNTGdfXdJ4vohaMzQ-9" value="- savedTime" style="text;strokeColor=none;fillColor=none;align=left;verticalAlign=top;spacingLeft=4;spacingRight=4;overflow=hidden;rotatable=0;points=[[0,0.5],[1,0.5]];portConstraint=eastwest;whiteSpace=wrap;html=1;" vertex="1" parent="anx8fXZ-Dg-yJ3C-ajO4-2">
          <mxGeometry y="52" width="160" height="26" as="geometry" />
        </mxCell>
        <mxCell id="cWrUNTGdfXdJ4vohaMzQ-24" value="+ Offline-Time valid" style="text;strokeColor=none;fillColor=none;align=left;verticalAlign=top;spacingLeft=4;spacingRight=4;overflow=hidden;rotatable=0;points=[[0,0.5],[1,0.5]];portConstraint=eastwest;whiteSpace=wrap;html=1;" vertex="1" parent="anx8fXZ-Dg-yJ3C-ajO4-2">
          <mxGeometry y="78" width="160" height="26" as="geometry" />
        </mxCell>
        <mxCell id="anx8fXZ-Dg-yJ3C-ajO4-4" value="" style="line;strokeWidth=1;fillColor=none;align=left;verticalAlign=middle;spacingTop=-1;spacingLeft=3;spacingRight=3;rotatable=0;labelPosition=right;points=[];portConstraint=eastwest;strokeColor=inherit;" parent="anx8fXZ-Dg-yJ3C-ajO4-2" vertex="1">
          <mxGeometry y="104" width="160" height="8" as="geometry" />
        </mxCell>
        <mxCell id="cWrUNTGdfXdJ4vohaMzQ-10" value="+ calucateReward" style="text;strokeColor=none;fillColor=none;align=left;verticalAlign=top;spacingLeft=4;spacingRight=4;overflow=hidden;rotatable=0;points=[[0,0.5],[1,0.5]];portConstraint=eastwest;whiteSpace=wrap;html=1;" vertex="1" parent="anx8fXZ-Dg-yJ3C-ajO4-2">
          <mxGeometry y="112" width="160" height="26" as="geometry" />
        </mxCell>
        <mxCell id="anx8fXZ-Dg-yJ3C-ajO4-10" style="edgeStyle=orthogonalEdgeStyle;rounded=0;orthogonalLoop=1;jettySize=auto;html=1;" parent="1" source="anx8fXZ-Dg-yJ3C-ajO4-6" target="anx8fXZ-Dg-yJ3C-ajO4-2" edge="1">
          <mxGeometry relative="1" as="geometry" />
        </mxCell>
        <mxCell id="anx8fXZ-Dg-yJ3C-ajO4-11" value="Load()" style="edgeLabel;html=1;align=center;verticalAlign=middle;resizable=0;points=[];" parent="anx8fXZ-Dg-yJ3C-ajO4-10" vertex="1" connectable="0">
          <mxGeometry relative="1" as="geometry">
            <mxPoint y="-10" as="offset" />
          </mxGeometry>
        </mxCell>
        <mxCell id="anx8fXZ-Dg-yJ3C-ajO4-6" value="GameManager" style="swimlane;fontStyle=1;align=center;verticalAlign=top;childLayout=stackLayout;horizontal=1;startSize=26;horizontalStack=0;resizeParent=1;resizeParentMax=0;resizeLast=0;collapsible=1;marginBottom=0;whiteSpace=wrap;html=1;" parent="1" vertex="1">
          <mxGeometry x="30" y="250" width="160" height="34" as="geometry" />
        </mxCell>
        <mxCell id="anx8fXZ-Dg-yJ3C-ajO4-8" value="" style="line;strokeWidth=1;fillColor=none;align=left;verticalAlign=middle;spacingTop=-1;spacingLeft=3;spacingRight=3;rotatable=0;labelPosition=right;points=[];portConstraint=eastwest;strokeColor=inherit;" parent="anx8fXZ-Dg-yJ3C-ajO4-6" vertex="1">
          <mxGeometry y="26" width="160" height="8" as="geometry" />
        </mxCell>
        <mxCell id="anx8fXZ-Dg-yJ3C-ajO4-12" value="Calculator" style="swimlane;fontStyle=1;align=center;verticalAlign=top;childLayout=stackLayout;horizontal=1;startSize=26;horizontalStack=0;resizeParent=1;resizeParentMax=0;resizeLast=0;collapsible=1;marginBottom=0;whiteSpace=wrap;html=1;" parent="1" vertex="1">
          <mxGeometry x="440" y="410" width="160" height="34" as="geometry" />
        </mxCell>
        <mxCell id="anx8fXZ-Dg-yJ3C-ajO4-14" value="" style="line;strokeWidth=1;fillColor=none;align=left;verticalAlign=middle;spacingTop=-1;spacingLeft=3;spacingRight=3;rotatable=0;labelPosition=right;points=[];portConstraint=eastwest;strokeColor=inherit;" parent="anx8fXZ-Dg-yJ3C-ajO4-12" vertex="1">
          <mxGeometry y="26" width="160" height="8" as="geometry" />
        </mxCell>
        <mxCell id="cWrUNTGdfXdJ4vohaMzQ-11" style="edgeStyle=orthogonalEdgeStyle;rounded=0;orthogonalLoop=1;jettySize=auto;html=1;jumpSize=23;jumpStyle=gap;" edge="1" parent="1" source="cWrUNTGdfXdJ4vohaMzQ-5" target="anx8fXZ-Dg-yJ3C-ajO4-2">
          <mxGeometry relative="1" as="geometry" />
        </mxCell>
        <mxCell id="cWrUNTGdfXdJ4vohaMzQ-12" value="saveTime()" style="edgeLabel;html=1;align=center;verticalAlign=middle;resizable=0;points=[];" vertex="1" connectable="0" parent="cWrUNTGdfXdJ4vohaMzQ-11">
          <mxGeometry x="0.0355" y="-1" relative="1" as="geometry">
            <mxPoint x="24" y="12" as="offset" />
          </mxGeometry>
        </mxCell>
        <mxCell id="cWrUNTGdfXdJ4vohaMzQ-5" value="OnApplicationClose" style="swimlane;fontStyle=1;align=center;verticalAlign=top;childLayout=stackLayout;horizontal=1;startSize=26;horizontalStack=0;resizeParent=1;resizeParentMax=0;resizeLast=0;collapsible=1;marginBottom=0;whiteSpace=wrap;html=1;" vertex="1" parent="1">
          <mxGeometry x="40" y="400" width="160" height="34" as="geometry" />
        </mxCell>
        <mxCell id="cWrUNTGdfXdJ4vohaMzQ-7" value="" style="line;strokeWidth=1;fillColor=none;align=left;verticalAlign=middle;spacingTop=-1;spacingLeft=3;spacingRight=3;rotatable=0;labelPosition=right;points=[];portConstraint=eastwest;strokeColor=inherit;" vertex="1" parent="cWrUNTGdfXdJ4vohaMzQ-5">
          <mxGeometry y="26" width="160" height="8" as="geometry" />
        </mxCell>
        <mxCell id="cWrUNTGdfXdJ4vohaMzQ-20" style="edgeStyle=orthogonalEdgeStyle;rounded=0;orthogonalLoop=1;jettySize=auto;html=1;" edge="1" parent="1" source="cWrUNTGdfXdJ4vohaMzQ-13" target="anx8fXZ-Dg-yJ3C-ajO4-2">
          <mxGeometry relative="1" as="geometry">
            <Array as="points">
              <mxPoint x="480" y="183" />
              <mxPoint x="480" y="240" />
            </Array>
          </mxGeometry>
        </mxCell>
        <mxCell id="cWrUNTGdfXdJ4vohaMzQ-21" value="Done()" style="edgeLabel;html=1;align=center;verticalAlign=middle;resizable=0;points=[];" vertex="1" connectable="0" parent="cWrUNTGdfXdJ4vohaMzQ-20">
          <mxGeometry x="-0.2489" y="-2" relative="1" as="geometry">
            <mxPoint x="-41" y="-15" as="offset" />
          </mxGeometry>
        </mxCell>
        <mxCell id="cWrUNTGdfXdJ4vohaMzQ-13" value="Screen" style="swimlane;fontStyle=1;align=center;verticalAlign=top;childLayout=stackLayout;horizontal=1;startSize=26;horizontalStack=0;resizeParent=1;resizeParentMax=0;resizeLast=0;collapsible=1;marginBottom=0;whiteSpace=wrap;html=1;" vertex="1" parent="1">
          <mxGeometry x="610" y="140" width="160" height="112" as="geometry" />
        </mxCell>
        <mxCell id="cWrUNTGdfXdJ4vohaMzQ-14" value="Mglkeit des Verdoppelns" style="text;strokeColor=none;fillColor=none;align=left;verticalAlign=top;spacingLeft=4;spacingRight=4;overflow=hidden;rotatable=0;points=[[0,0.5],[1,0.5]];portConstraint=eastwest;whiteSpace=wrap;html=1;" vertex="1" parent="cWrUNTGdfXdJ4vohaMzQ-13">
          <mxGeometry y="26" width="160" height="26" as="geometry" />
        </mxCell>
        <mxCell id="cWrUNTGdfXdJ4vohaMzQ-25" value="Mglkeit des Verdreifachen" style="text;strokeColor=none;fillColor=none;align=left;verticalAlign=top;spacingLeft=4;spacingRight=4;overflow=hidden;rotatable=0;points=[[0,0.5],[1,0.5]];portConstraint=eastwest;whiteSpace=wrap;html=1;" vertex="1" parent="cWrUNTGdfXdJ4vohaMzQ-13">
          <mxGeometry y="52" width="160" height="26" as="geometry" />
        </mxCell>
        <mxCell id="cWrUNTGdfXdJ4vohaMzQ-15" value="" style="line;strokeWidth=1;fillColor=none;align=left;verticalAlign=middle;spacingTop=-1;spacingLeft=3;spacingRight=3;rotatable=0;labelPosition=right;points=[];portConstraint=eastwest;strokeColor=inherit;" vertex="1" parent="cWrUNTGdfXdJ4vohaMzQ-13">
          <mxGeometry y="78" width="160" height="8" as="geometry" />
        </mxCell>
        <mxCell id="cWrUNTGdfXdJ4vohaMzQ-19" value="+ calucateReward" style="text;strokeColor=none;fillColor=none;align=left;verticalAlign=top;spacingLeft=4;spacingRight=4;overflow=hidden;rotatable=0;points=[[0,0.5],[1,0.5]];portConstraint=eastwest;whiteSpace=wrap;html=1;" vertex="1" parent="cWrUNTGdfXdJ4vohaMzQ-13">
          <mxGeometry y="86" width="160" height="26" as="geometry" />
        </mxCell>
      </root>
    </mxGraphModel>
  </diagram>
</mxfile>
